<?xml version="1.0" encoding="UTF-8" standalone="no"?>
<svg
   xmlns:dc="http://purl.org/dc/elements/1.1/"
   xmlns:cc="http://creativecommons.org/ns#"
   xmlns:rdf="http://www.w3.org/1999/02/22-rdf-syntax-ns#"
   xmlns:svg="http://www.w3.org/2000/svg"
   xmlns="http://www.w3.org/2000/svg"
   xmlns:sodipodi="http://sodipodi.sourceforge.net/DTD/sodipodi-0.dtd"
   xmlns:inkscape="http://www.inkscape.org/namespaces/inkscape"
   version="1.0"
   width="90.016327"
   height="284.33438"
   viewBox="0 0 72.013061 227.4675"
   preserveAspectRatio="xMidYMid meet"
   id="svg2985"
   inkscape:version="0.48.3.1 r9886"
   sodipodi:docname="landspacewhale_new.svg">
  <defs
     id="defs3011" />
  <sodipodi:namedview
     pagecolor="#ffffff"
     bordercolor="#666666"
     borderopacity="1"
     objecttolerance="10"
     gridtolerance="10"
     guidetolerance="10"
     inkscape:pageopacity="0"
     inkscape:pageshadow="2"
     inkscape:window-width="1366"
     inkscape:window-height="716"
     id="namedview3009"
     showgrid="false"
     inkscape:zoom="6.8552845"
     inkscape:cx="42.222092"
     inkscape:cy="266.34724"
     inkscape:window-x="0"
     inkscape:window-y="0"
     inkscape:window-maximized="1"
     inkscape:current-layer="svg2985"
     fit-margin-top="4"
     fit-margin-left="4"
     fit-margin-right="4"
     fit-margin-bottom="4" />
  <metadata
     id="metadata2987">
Created by potrace 1.10, written by Peter Selinger 2001-2011
<rdf:RDF>
  <cc:Work
     rdf:about="">
    <dc:format>image/svg+xml</dc:format>
    <dc:type
       rdf:resource="http://purl.org/dc/dcmitype/StillImage" />
    <dc:title />
  </cc:Work>
</rdf:RDF>
</metadata>
  <path
     style="fill:#ffd800;fill-opacity:1;stroke:#ffd800;stroke-width:0.80000001;stroke-miterlimit:4;stroke-opacity:1;stroke-dasharray:none"
     d="m 49.963219,218.50674 -1.867168,-0.37172 -0.09323,-7.12528 c -0.05128,-3.91891 -0.282512,-7.63699 -0.513864,-8.26239 l -0.42064,-1.1371 -0.556736,1.04027 c -0.357128,0.66729 -0.562376,3.52701 -0.572464,7.9761 l -0.01576,6.93584 -1.779344,-0.45165 -1.779352,-0.45165 -0.177448,-6.46154 c -0.0976,-3.55385 -0.334456,-6.61856 -0.526352,-6.81044 -1.002352,-1.00236 -1.354288,0.9887 -1.198264,6.77903 0.18132,6.72922 0.317408,6.44738 -2.811072,5.82169 l -1.45872,-0.29175 -0.0328,-4.95967 c -0.03672,-5.54982 -0.522008,-7.88898 -1.072848,-5.17122 -0.179688,0.88655 -0.456224,3.55495 -0.614512,5.92976 l -0.287808,4.31783 -1.504632,0 -1.504632,0 -0.222752,-5.25142 c -0.210896,-4.97177 -0.89884,-7.81879 -1.889312,-7.81879 -0.276072,0 -0.317152,2.45674 -0.108472,6.48704 l 0.335872,6.48703 -1.333672,0.25648 c -0.733528,0.14107 -2.232008,0.39216 -3.32996,0.55799 l -1.996288,0.30152 0.248944,-1.79361 c 0.13692,-0.98647 0.771904,-11.24616 1.411072,-22.79929 1.736736,-31.39208 1.894832,-32.76832 5.071568,-44.14776 3.8902,-13.93513 5.15188,-23.9328 5.120488,-40.5752 C 34.454659,92.443496 33.584043,82.560328 30.576787,63.17147 28.773923,51.547753 27.051027,43.569535 25.453131,39.445366 22.795163,32.585138 17.102315,24.427637 14.972755,24.427637 c -0.356776,0 -2.222455,0.63017 -4.145959,1.400379 -6.1847357,2.476487 -6.9586637,1.720496 -2.6768157,-2.614766 3.2266477,-3.266899 6.6601587,-5.279757 9.7450387,-5.712918 l 2.193432,-0.30799 1.089616,-3.500948 c 0.599288,-1.92552 1.373568,-4.1311169 1.720616,-4.9013257 l 0.631008,-1.4003792 0.02984,1.9549048 c 0.0164,1.0751971 -0.286112,3.3173201 -0.672296,4.9824921 -0.844872,3.643017 -0.630024,4.377545 2.53704,8.673833 5.96592,8.093073 14.871632,25.438857 22.661584,44.138293 6.4588,15.504052 7.759168,20.211628 11.411304,41.311208 5.9568,34.41434 7.834168,56.88585 7.431504,88.95283 l -0.181344,14.44186 -1.156768,1.55993 -1.156768,1.55994 -0.28504,-5.80298 c -0.288864,-5.88069 -0.925744,-8.52148 -1.620288,-6.71838 -0.183872,0.47739 -0.209952,3.77603 -0.05792,7.33033 l 0.276376,6.46237 -1.545616,0.95526 c -0.850096,0.52538 -1.625856,0.95516 -1.72392,0.95506 -0.09807,-1e-4 -0.198464,-3.3085 -0.223112,-7.35199 -0.04728,-7.75183 -0.659096,-11.09734 -1.692016,-9.25165 -0.340728,0.60884 -0.405912,3.50594 -0.201064,8.93601 0.331472,8.78611 0.383288,8.60178 -2.418128,8.60109 l -1.245496,-3.2e-4 0,-7.89668 c 0,-7.42197 -0.211488,-9.08264 -1.050288,-8.24748 -0.192552,0.19172 -0.45512,3.85728 -0.583496,8.14571 l -0.233392,7.79713 -1.867176,-0.37172 0,0 z M 19.504971,21.250182 c 1.06272,-0.912719 1.030432,-1.343343 -0.148008,-1.974023 -1.207424,-0.646197 -3.236248,0.517204 -3.236248,1.855787 0,1.517148 1.686816,1.57608 3.384256,0.118236 z"
     id="path3785"
     inkscape:connector-curvature="0" />
  <g
     transform="matrix(0.1,0,0,-0.1,-85.027045,238.2)"
     id="g2989"
     style="fill:#000000;stroke:none">
    <path
       d="m 1078,2326 c -9,-13 -20,-36 -24,-52 -9,-37 -22,-54 -44,-54 -23,0 -95,-53 -116,-85 -27,-41 -7,-51 56,-31 63,21 72,15 118,-72 38,-72 54,-142 87,-378 45,-323 35,-564 -31,-766 -27,-82 -38,-220 -48,-578 l -5,-165 9,130 c 5,72 13,218 19,325 8,164 14,208 36,278 68,215 78,465 31,792 -34,237 -49,301 -91,375 -45,81 -66,100 -96,85 -12,-7 -35,-16 -50,-20 -42,-12 -37,10 11,54 39,35 73,50 100,44 9,-2 16,12 22,41 9,52 28,79 28,40 0,-13 -4,-39 -10,-58 -8,-30 -6,-37 25,-74 63,-73 230,-421 289,-602 33,-101 98,-495 116,-700 14,-165 18,-520 7,-587 -5,-30 -5,-48 1,-48 16,0 25,220 18,395 -8,194 -30,430 -50,545 -62,346 -71,385 -137,552 -67,169 -216,453 -249,473 -5,3 -7,37 -3,85 3,44 4,80 2,80 -2,0 -12,-11 -21,-24 z"
       id="path2991"
       inkscape:connector-curvature="0" />
    <path
       d="m 1015,2179 c -4,-6 -4,-13 -1,-16 8,-8 36,5 36,17 0,13 -27,13 -35,-1 z"
       id="path2993"
       inkscape:connector-curvature="0" />
    <path
       d="m 1426,268 c 5,-132 6,-134 13,-68 8,64 2,170 -10,170 -4,0 -6,-46 -3,-102 z"
       id="path2995"
       inkscape:connector-curvature="0" />
    <path
       d="m 1310,268 c 0,-51 5,-100 10,-108 7,-10 10,19 10,93 0,65 -4,107 -10,107 -6,0 -10,-37 -10,-92 z"
       id="path2997"
       inkscape:connector-curvature="0" />
    <path
       d="m 1378,354 c -5,-4 -7,-59 -7,-123 1,-106 2,-111 11,-61 10,62 7,196 -4,184 z"
       id="path2999"
       inkscape:connector-curvature="0" />
    <path
       d="m 1477,273 c 3,-49 7,-90 9,-92 2,-2 4,37 4,87 0,52 -4,92 -10,92 -5,0 -7,-35 -3,-87 z"
       id="path3001"
       inkscape:connector-curvature="0" />
    <path
       d="m 1141,303 c 5,-26 7,-71 3,-101 -4,-37 -2,-52 5,-47 12,7 15,134 5,173 -12,42 -21,22 -13,-25 z"
       id="path3003"
       inkscape:connector-curvature="0" />
    <path
       d="m 1259,348 c -4,-20 0,-181 5,-185 3,-4 6,37 6,90 0,54 -2,97 -5,97 -3,0 -5,-1 -6,-2 z"
       id="path3005"
       inkscape:connector-curvature="0" />
    <path
       d="m 1196,260 c -4,-49 -3,-88 3,-98 8,-12 10,11 11,81 0,53 -2,97 -4,97 -2,0 -6,-36 -10,-80 z"
       id="path3007"
       inkscape:connector-curvature="0" />
  </g>
</svg>
